<svg xmlns="http://www.w3.org/2000/svg" width="1920" height="1920"><path d="M-214,-260L90,-227L487,-252Z" fill="#eef9c2" stroke="#eef9c2" stroke-width="1.51"/><path d="M128,2161L-180,2195L552,2149Z" fill="#7d818c" stroke="#7d818c" stroke-width="1.51"/><path d="M753,2132L552,2149L1024,2151Z" fill="#456e92" stroke="#456e92" stroke-width="1.51"/><path d="M-214,-260L487,-252L1100,-265Z" fill="#d5eec5" stroke="#d5eec5" stroke-width="1.51"/><path d="M1024,2151L552,2149L1526,2182Z" fill="#2d6492" stroke="#2d6492" stroke-width="1.51"/><path d="M552,2149L-180,2195L1526,2182Z" fill="#50728d" stroke="#50728d" stroke-width="1.51"/><path d="M1100,-265L1268,-245L1936,-245Z" fill="#a0b8c5" stroke="#a0b8c5" stroke-width="1.51"/><path d="M1443,-176L1523,-159L1936,-245Z" fill="#9ca6ba" stroke="#9ca6ba" stroke-width="1.51"/><path d="M1268,-245L1443,-176L1936,-245Z" fill="#9eadbf" stroke="#9eadbf" stroke-width="1.51"/><path d="M1807,2082L1526,2182L2064,2166Z" fill="#1b3280" stroke="#1b3280" stroke-width="1.51"/><path d="M1958,160L2009,355L2126,117Z" fill="#838699" stroke="#838699" stroke-width="1.51"/><path d="M2120,-155L2070,-24L2126,117Z" fill="#8b8794" stroke="#8b8794" stroke-width="1.51"/><path d="M2106,1572L2069,1744L2132,1988Z" fill="#1d3585" stroke="#1d3585" stroke-width="1.51"/><path d="M2149,650L2103,836L2161,1031Z" fill="#3f6d94" stroke="#3f6d94" stroke-width="1.51"/><path d="M2161,1031L1980,1076L2179,1280Z" fill="#2b6197" stroke="#2b6197" stroke-width="1.51"/><path d="M1980,1076L1971,1288L2179,1280Z" fill="#285f9d" stroke="#285f9d" stroke-width="1.51"/><path d="M2179,1280L1988,1397L2195,1359Z" fill="#1f5392" stroke="#1f5392" stroke-width="1.51"/><path d="M1988,1397L2106,1572L2195,1359Z" fill="#204d90" stroke="#204d90" stroke-width="1.51"/><path d="M2161,1031L2179,1280L2195,1359Z" fill="#21598f" stroke="#21598f" stroke-width="1.51"/><path d="M2106,1572L2132,1988L2195,1359Z" fill="#1a3c85" stroke="#1a3c85" stroke-width="1.51"/><path d="M2009,355L2147,515L2196,286Z" fill="#707d91" stroke="#707d91" stroke-width="1.51"/><path d="M2126,117L2009,355L2196,286Z" fill="#7c8291" stroke="#7c8291" stroke-width="1.51"/><path d="M2120,-155L2126,117L2196,286Z" fill="#83838d" stroke="#83838d" stroke-width="1.51"/><path d="M2161,1031L2195,1359L2196,286Z" fill="#376990" stroke="#376990" stroke-width="1.51"/><path d="M2149,650L2161,1031L2196,286Z" fill="#4e718e" stroke="#4e718e" stroke-width="1.51"/><path d="M2147,515L2149,650L2196,286Z" fill="#63788e" stroke="#63788e" stroke-width="1.51"/><path d="M2069,1744L2016,2015L2132,1988Z" fill="#1d2d82" stroke="#1d2d82" stroke-width="1.51"/><path d="M2016,2015L2064,2166L2132,1988Z" fill="#172875" stroke="#172875" stroke-width="1.51"/><path d="M1972,686L2103,836L2149,650Z" fill="#4d7398" stroke="#4d7398" stroke-width="1.51"/><path d="M2103,836L1930,901L2161,1031Z" fill="#3b6e9c" stroke="#3b6e9c" stroke-width="1.51"/><path d="M1930,901L1980,1076L2161,1031Z" fill="#366ca0" stroke="#366ca0" stroke-width="1.51"/><path d="M1971,1288L1988,1397L2179,1280Z" fill="#24589a" stroke="#24589a" stroke-width="1.51"/><path d="M1954,1767L2016,2015L2069,1744Z" fill="#21348b" stroke="#21348b" stroke-width="1.51"/><path d="M2009,355L1947,479L2147,515Z" fill="#6f7f9b" stroke="#6f7f9b" stroke-width="1.51"/><path d="M1947,479L1972,686L2147,515Z" fill="#627c9c" stroke="#627c9c" stroke-width="1.51"/><path d="M2147,515L1972,686L2149,650Z" fill="#577696" stroke="#577696" stroke-width="1.51"/><path d="M2012,1586L2069,1744L2106,1572Z" fill="#1f408d" stroke="#1f408d" stroke-width="1.51"/><path d="M1988,1397L2012,1586L2106,1572Z" fill="#214994" stroke="#214994" stroke-width="1.51"/><path d="M2070,-24L1958,160L2126,117Z" fill="#898897" stroke="#898897" stroke-width="1.51"/><path d="M1959,-50L2070,-24L2120,-155Z" fill="#8f8a9d" stroke="#8f8a9d" stroke-width="1.51"/><path d="M1936,-245L1959,-50L2120,-155Z" fill="#948da5" stroke="#948da5" stroke-width="1.51"/><path d="M1972,686L1930,901L2103,836Z" fill="#4974a1" stroke="#4974a1" stroke-width="1.51"/><path d="M1959,-50L1958,160L2070,-24Z" fill="#908b9d" stroke="#908b9d" stroke-width="1.51"/><path d="M1919,2070L1807,2082L2064,2166Z" fill="#1b2b7e" stroke="#1b2b7e" stroke-width="1.51"/><path d="M2016,2015L1919,2070L2064,2166Z" fill="#182a79" stroke="#182a79" stroke-width="1.51"/><path d="M2012,1586L1954,1767L2069,1744Z" fill="#213e90" stroke="#213e90" stroke-width="1.51"/><path d="M1954,1767L1789,1925L2016,2015Z" fill="#243392" stroke="#243392" stroke-width="1.51"/><path d="M487,-252L808,-222L1100,-265Z" fill="#b7e0c9" stroke="#b7e0c9" stroke-width="1.51"/><path d="M1523,-159L1778,-148L1936,-245Z" fill="#9c9db6" stroke="#9c9db6" stroke-width="1.51"/><path d="M1824,12L1958,160L1959,-50Z" fill="#958fa5" stroke="#958fa5" stroke-width="1.51"/><path d="M1947,479L1784,626L1972,686Z" fill="#6480a9" stroke="#6480a9" stroke-width="1.51"/><path d="M1723,1391L1746,1647L1988,1397Z" fill="#2758a5" stroke="#2758a5" stroke-width="1.51"/><path d="M1958,160L1744,296L2009,355Z" fill="#878ba6" stroke="#878ba6" stroke-width="1.51"/><path d="M1988,1397L1746,1647L2012,1586Z" fill="#264c9f" stroke="#264c9f" stroke-width="1.51"/><path d="M1746,1647L1954,1767L2012,1586Z" fill="#26449c" stroke="#26449c" stroke-width="1.51"/><path d="M1789,1925L1919,2070L2016,2015Z" fill="#21308a" stroke="#21308a" stroke-width="1.51"/><path d="M1777,1023L1720,1291L1971,1288Z" fill="#306cad" stroke="#306cad" stroke-width="1.51"/><path d="M1798,873L1930,901L1972,686Z" fill="#4d79ab" stroke="#4d79ab" stroke-width="1.51"/><path d="M1777,1023L1971,1288L1980,1076Z" fill="#356aab" stroke="#356aab" stroke-width="1.51"/><path d="M1744,296L1947,479L2009,355Z" fill="#7e88a7" stroke="#7e88a7" stroke-width="1.51"/><path d="M1779,541L1784,626L1947,479Z" fill="#6a86aa" stroke="#6a86aa" stroke-width="1.51"/><path d="M1791,138L1744,296L1958,160Z" fill="#8c91a9" stroke="#8c91a9" stroke-width="1.51"/><path d="M1936,-245L1778,-148L1959,-50Z" fill="#9a93b0" stroke="#9a93b0" stroke-width="1.51"/><path d="M1930,901L1777,1023L1980,1076Z" fill="#3c72ad" stroke="#3c72ad" stroke-width="1.51"/><path d="M1971,1288L1723,1391L1988,1397Z" fill="#2a5ca8" stroke="#2a5ca8" stroke-width="1.51"/><path d="M1824,12L1791,138L1958,160Z" fill="#9291a8" stroke="#9291a8" stroke-width="1.51"/><path d="M1720,1291L1723,1391L1971,1288Z" fill="#2965ab" stroke="#2965ab" stroke-width="1.51"/><path d="M1784,626L1798,873L1972,686Z" fill="#567fab" stroke="#567fab" stroke-width="1.51"/><path d="M1744,296L1779,541L1947,479Z" fill="#778baa" stroke="#778baa" stroke-width="1.51"/><path d="M1724,1816L1789,1925L1954,1767Z" fill="#263e98" stroke="#263e98" stroke-width="1.51"/><path d="M1778,-148L1824,12L1959,-50Z" fill="#9995ac" stroke="#9995ac" stroke-width="1.51"/><path d="M1746,1647L1724,1816L1954,1767Z" fill="#26469c" stroke="#26469c" stroke-width="1.51"/><path d="M1789,1925L1807,2082L1919,2070Z" fill="#20348a" stroke="#20348a" stroke-width="1.51"/><path d="M1798,873L1777,1023L1930,901Z" fill="#417aae" stroke="#417aae" stroke-width="1.51"/><path d="M1723,1391L1564,1463L1746,1647Z" fill="#255fa9" stroke="#255fa9" stroke-width="1.51"/><path d="M1557,1188L1720,1291L1777,1023Z" fill="#2e77b2" stroke="#2e77b2" stroke-width="1.51"/><path d="M1744,296L1619,362L1779,541Z" fill="#7b95ad" stroke="#7b95ad" stroke-width="1.51"/><path d="M1619,362L1616,478L1779,541Z" fill="#7495af" stroke="#7495af" stroke-width="1.51"/><path d="M1784,626L1619,857L1798,873Z" fill="#5085b0" stroke="#5085b0" stroke-width="1.51"/><path d="M1778,-148L1592,14L1824,12Z" fill="#999dae" stroke="#999dae" stroke-width="1.51"/><path d="M1643,150L1791,138L1824,12Z" fill="#939aab" stroke="#939aab" stroke-width="1.51"/><path d="M1592,14L1643,150L1824,12Z" fill="#959fac" stroke="#959fac" stroke-width="1.51"/><path d="M1593,1003L1557,1188L1777,1023Z" fill="#337fb4" stroke="#337fb4" stroke-width="1.51"/><path d="M1619,857L1593,1003L1777,1023Z" fill="#3a84b4" stroke="#3a84b4" stroke-width="1.51"/><path d="M1548,626L1619,857L1784,626Z" fill="#568eb1" stroke="#568eb1" stroke-width="1.51"/><path d="M1643,150L1744,296L1791,138Z" fill="#8d99ac" stroke="#8d99ac" stroke-width="1.51"/><path d="M1619,857L1777,1023L1798,873Z" fill="#4181b1" stroke="#4181b1" stroke-width="1.51"/><path d="M1789,1925L1557,1941L1807,2082Z" fill="#233d92" stroke="#233d92" stroke-width="1.51"/><path d="M1557,1941L1526,2182L1807,2082Z" fill="#1e408c" stroke="#1e408c" stroke-width="1.51"/><path d="M1564,1463L1570,1626L1746,1647Z" fill="#235ca8" stroke="#235ca8" stroke-width="1.51"/><path d="M1779,541L1616,478L1784,626Z" fill="#698ead" stroke="#698ead" stroke-width="1.51"/><path d="M1616,478L1548,626L1784,626Z" fill="#6592b0" stroke="#6592b0" stroke-width="1.51"/><path d="M1724,1816L1557,1941L1789,1925Z" fill="#26449c" stroke="#26449c" stroke-width="1.51"/><path d="M1523,-159L1592,14L1778,-148Z" fill="#9ba6b4" stroke="#9ba6b4" stroke-width="1.51"/><path d="M1643,150L1619,362L1744,296Z" fill="#889cad" stroke="#889cad" stroke-width="1.51"/><path d="M1535,1731L1724,1816L1746,1647Z" fill="#2650a1" stroke="#2650a1" stroke-width="1.51"/><path d="M1570,1626L1535,1731L1746,1647Z" fill="#2457a5" stroke="#2457a5" stroke-width="1.51"/><path d="M1475,1409L1564,1463L1720,1291Z" fill="#236fb0" stroke="#236fb0" stroke-width="1.51"/><path d="M1557,1188L1475,1409L1720,1291Z" fill="#2376b3" stroke="#2376b3" stroke-width="1.51"/><path d="M1720,1291L1564,1463L1723,1391Z" fill="#2669ae" stroke="#2669ae" stroke-width="1.51"/><path d="M1535,1731L1557,1941L1724,1816Z" fill="#264da0" stroke="#264da0" stroke-width="1.51"/><path d="M1443,2126L1166,2097L1526,2182Z" fill="#1e508f" stroke="#1e508f" stroke-width="1.51"/><path d="M1166,2097L1024,2151L1526,2182Z" fill="#215993" stroke="#215993" stroke-width="1.51"/><path d="M1443,2126L1526,2182L1557,1941Z" fill="#1f488f" stroke="#1f488f" stroke-width="1.51"/><path d="M1548,626L1474,630L1619,857Z" fill="#5595b5" stroke="#5595b5" stroke-width="1.51"/><path d="M1426,137L1366,332L1619,362Z" fill="#89acb4" stroke="#89acb4" stroke-width="1.51"/><path d="M1426,137L1619,362L1643,150Z" fill="#8ca5b1" stroke="#8ca5b1" stroke-width="1.51"/><path d="M1592,14L1426,137L1643,150Z" fill="#94a8b1" stroke="#94a8b1" stroke-width="1.51"/><path d="M1535,1731L1418,1817L1557,1941Z" fill="#2755a4" stroke="#2755a4" stroke-width="1.51"/><path d="M1432,484L1548,626L1616,478Z" fill="#6c9db4" stroke="#6c9db4" stroke-width="1.51"/><path d="M1474,630L1381,886L1619,857Z" fill="#4c97b8" stroke="#4c97b8" stroke-width="1.51"/><path d="M1381,886L1593,1003L1619,857Z" fill="#3e8fb8" stroke="#3e8fb8" stroke-width="1.51"/><path d="M1432,484L1616,478L1619,362Z" fill="#779eb3" stroke="#779eb3" stroke-width="1.51"/><path d="M1366,332L1432,484L1619,362Z" fill="#7da8b5" stroke="#7da8b5" stroke-width="1.51"/><path d="M1432,484L1474,630L1548,626Z" fill="#649fb6" stroke="#649fb6" stroke-width="1.51"/><path d="M1368,1253L1475,1409L1557,1188Z" fill="#2281b8" stroke="#2281b8" stroke-width="1.51"/><path d="M1564,1463L1428,1637L1570,1626Z" fill="#2364ab" stroke="#2364ab" stroke-width="1.51"/><path d="M1523,-159L1360,-15L1592,14Z" fill="#9bb1b7" stroke="#9bb1b7" stroke-width="1.51"/><path d="M1350,1048L1557,1188L1593,1003Z" fill="#308ab9" stroke="#308ab9" stroke-width="1.51"/><path d="M1381,886L1350,1048L1593,1003Z" fill="#3594bc" stroke="#3594bc" stroke-width="1.51"/><path d="M1360,-15L1426,137L1592,14Z" fill="#98b2b4" stroke="#98b2b4" stroke-width="1.51"/><path d="M1443,-176L1360,-15L1523,-159Z" fill="#9db6bc" stroke="#9db6bc" stroke-width="1.51"/><path d="M1355,2017L1443,2126L1557,1941Z" fill="#234f97" stroke="#234f97" stroke-width="1.51"/><path d="M1475,1409L1428,1637L1564,1463Z" fill="#236db0" stroke="#236db0" stroke-width="1.51"/><path d="M1428,1637L1535,1731L1570,1626Z" fill="#255fa9" stroke="#255fa9" stroke-width="1.51"/><path d="M1350,1048L1368,1253L1557,1188Z" fill="#2a8bbc" stroke="#2a8bbc" stroke-width="1.51"/><path d="M1418,1817L1355,2017L1557,1941Z" fill="#2853a1" stroke="#2853a1" stroke-width="1.51"/><path d="M1428,1637L1418,1817L1535,1731Z" fill="#265fa9" stroke="#265fa9" stroke-width="1.51"/><path d="M1285,1754L1418,1817L1428,1637Z" fill="#2865ac" stroke="#2865ac" stroke-width="1.51"/><path d="M1227,813L1381,886L1474,630Z" fill="#4da2bc" stroke="#4da2bc" stroke-width="1.51"/><path d="M1182,724L1227,813L1474,630Z" fill="#53aabe" stroke="#53aabe" stroke-width="1.51"/><path d="M1432,484L1196,503L1474,630Z" fill="#6babba" stroke="#6babba" stroke-width="1.51"/><path d="M1368,1253L1182,1397L1475,1409Z" fill="#2185bb" stroke="#2185bb" stroke-width="1.51"/><path d="M1250,1607L1428,1637L1475,1409Z" fill="#2371b2" stroke="#2371b2" stroke-width="1.51"/><path d="M1182,1397L1250,1607L1475,1409Z" fill="#227eb8" stroke="#227eb8" stroke-width="1.51"/><path d="M1196,503L1182,724L1474,630Z" fill="#5fafbd" stroke="#5fafbd" stroke-width="1.51"/><path d="M387,2134L128,2161L552,2149Z" fill="#727d8e" stroke="#727d8e" stroke-width="1.51"/><path d="M1350,1048L1253,1197L1368,1253Z" fill="#2793bf" stroke="#2793bf" stroke-width="1.51"/><path d="M1249,1992L1355,2017L1418,1817Z" fill="#295ba4" stroke="#295ba4" stroke-width="1.51"/><path d="M1236,132L1366,332L1426,137Z" fill="#8fb9b9" stroke="#8fb9b9" stroke-width="1.51"/><path d="M1355,2017L1166,2097L1443,2126Z" fill="#225796" stroke="#225796" stroke-width="1.51"/><path d="M1268,-245L1360,-15L1443,-176Z" fill="#9fbec1" stroke="#9fbec1" stroke-width="1.51"/><path d="M1285,1754L1249,1992L1418,1817Z" fill="#2b62aa" stroke="#2b62aa" stroke-width="1.51"/><path d="M1360,-15L1236,132L1426,137Z" fill="#97bbb8" stroke="#97bbb8" stroke-width="1.51"/><path d="M1250,1607L1285,1754L1428,1637Z" fill="#266eb0" stroke="#266eb0" stroke-width="1.51"/><path d="M1366,332L1196,503L1432,484Z" fill="#79b2bb" stroke="#79b2bb" stroke-width="1.51"/><path d="M1256,1068L1253,1197L1350,1048Z" fill="#2b9ac1" stroke="#2b9ac1" stroke-width="1.51"/><path d="M1249,1992L1166,2097L1355,2017Z" fill="#265d9d" stroke="#265d9d" stroke-width="1.51"/><path d="M1268,-245L1208,-24L1360,-15Z" fill="#9fc3c1" stroke="#9fc3c1" stroke-width="1.51"/><path d="M1236,132L1162,352L1366,332Z" fill="#8bbebb" stroke="#8bbebb" stroke-width="1.51"/><path d="M1162,352L1196,503L1366,332Z" fill="#7fbbbc" stroke="#7fbbbc" stroke-width="1.51"/><path d="M1253,1197L1182,1397L1368,1253Z" fill="#1e91c0" stroke="#1e91c0" stroke-width="1.51"/><path d="M1256,1068L1350,1048L1381,886Z" fill="#329cc0" stroke="#329cc0" stroke-width="1.51"/><path d="M1227,813L1256,1068L1381,886Z" fill="#39a4c1" stroke="#39a4c1" stroke-width="1.51"/><path d="M1208,-24L1236,132L1360,-15Z" fill="#9cc3ba" stroke="#9cc3ba" stroke-width="1.51"/><path d="M1089,574L1182,724L1196,503Z" fill="#65b8be" stroke="#65b8be" stroke-width="1.51"/><path d="M1095,1759L1101,1971L1249,1992Z" fill="#3469ab" stroke="#3469ab" stroke-width="1.51"/><path d="M1227,813L1075,839L1256,1068Z" fill="#40aac2" stroke="#40aac2" stroke-width="1.51"/><path d="M1075,839L1037,1056L1256,1068Z" fill="#39abc3" stroke="#39abc3" stroke-width="1.51"/><path d="M1100,-265L1208,-24L1268,-245Z" fill="#a3cac7" stroke="#a3cac7" stroke-width="1.51"/><path d="M1250,1607L1095,1759L1285,1754Z" fill="#2c73b1" stroke="#2c73b1" stroke-width="1.51"/><path d="M1095,1759L1249,1992L1285,1754Z" fill="#2f6bad" stroke="#2f6bad" stroke-width="1.51"/><path d="M1182,1397L1050,1423L1250,1607Z" fill="#2a87ba" stroke="#2a87ba" stroke-width="1.51"/><path d="M1037,1056L1253,1197L1256,1068Z" fill="#30a0c2" stroke="#30a0c2" stroke-width="1.51"/><path d="M1100,-265L1088,-2L1208,-24Z" fill="#a4cdc2" stroke="#a4cdc2" stroke-width="1.51"/><path d="M1086,353L1162,352L1236,132Z" fill="#8ec4bc" stroke="#8ec4bc" stroke-width="1.51"/><path d="M1208,-24L1088,-2L1236,132Z" fill="#9ec8bb" stroke="#9ec8bb" stroke-width="1.51"/><path d="M1050,1423L985,1611L1250,1607Z" fill="#3085b7" stroke="#3085b7" stroke-width="1.51"/><path d="M984,1193L1182,1397L1253,1197Z" fill="#2899c1" stroke="#2899c1" stroke-width="1.51"/><path d="M1037,1056L984,1193L1253,1197Z" fill="#32a3c2" stroke="#32a3c2" stroke-width="1.51"/><path d="M989,87L1086,353L1236,132Z" fill="#95cabc" stroke="#95cabc" stroke-width="1.51"/><path d="M1101,1971L1166,2097L1249,1992Z" fill="#2d639f" stroke="#2d639f" stroke-width="1.51"/><path d="M985,1611L1095,1759L1250,1607Z" fill="#317cb3" stroke="#317cb3" stroke-width="1.51"/><path d="M1088,-2L989,87L1236,132Z" fill="#9eccbb" stroke="#9eccbb" stroke-width="1.51"/><path d="M984,1193L1050,1423L1182,1397Z" fill="#2e98bf" stroke="#2e98bf" stroke-width="1.51"/><path d="M1182,724L1075,839L1227,813Z" fill="#4fb0c1" stroke="#4fb0c1" stroke-width="1.51"/><path d="M1089,574L1068,711L1182,724Z" fill="#5db7bf" stroke="#5db7bf" stroke-width="1.51"/><path d="M1162,352L1086,353L1196,503Z" fill="#81c1bd" stroke="#81c1bd" stroke-width="1.51"/><path d="M1068,711L1075,839L1182,724Z" fill="#54b4c0" stroke="#54b4c0" stroke-width="1.51"/><path d="M1086,353L1089,574L1196,503Z" fill="#79bfbd" stroke="#79bfbd" stroke-width="1.51"/><path d="M989,87L905,164L1086,353Z" fill="#98d0bc" stroke="#98d0bc" stroke-width="1.51"/><path d="M1101,1971L1024,2151L1166,2097Z" fill="#2e659a" stroke="#2e659a" stroke-width="1.51"/><path d="M848,2100L753,2132L1024,2151Z" fill="#3c6c95" stroke="#3c6c95" stroke-width="1.51"/><path d="M984,1193L877,1354L1050,1423Z" fill="#339fc0" stroke="#339fc0" stroke-width="1.51"/><path d="M852,996L1037,1056L1075,839Z" fill="#40b4c4" stroke="#40b4c4" stroke-width="1.51"/><path d="M905,164L875,320L1086,353Z" fill="#93d0bd" stroke="#93d0bd" stroke-width="1.51"/><path d="M1086,353L891,475L1089,574Z" fill="#7dc6bd" stroke="#7dc6bd" stroke-width="1.51"/><path d="M866,-7L1088,-2L1100,-265Z" fill="#a6d4c2" stroke="#a6d4c2" stroke-width="1.51"/><path d="M808,-222L866,-7L1100,-265Z" fill="#acdac6" stroke="#acdac6" stroke-width="1.51"/><path d="M1095,1759L819,1754L1101,1971Z" fill="#3b76ae" stroke="#3b76ae" stroke-width="1.51"/><path d="M819,1754L852,2015L1101,1971Z" fill="#4374ab" stroke="#4374ab" stroke-width="1.51"/><path d="M852,2015L1024,2151L1101,1971Z" fill="#356c9e" stroke="#356c9e" stroke-width="1.51"/><path d="M886,730L1068,711L1089,574Z" fill="#60bdc0" stroke="#60bdc0" stroke-width="1.51"/><path d="M985,1611L819,1754L1095,1759Z" fill="#3a80b3" stroke="#3a80b3" stroke-width="1.51"/><path d="M841,825L852,996L1075,839Z" fill="#4fbac3" stroke="#4fbac3" stroke-width="1.51"/><path d="M1068,711L886,730L1075,839Z" fill="#57bac1" stroke="#57bac1" stroke-width="1.51"/><path d="M875,320L891,475L1086,353Z" fill="#8acdbd" stroke="#8acdbd" stroke-width="1.51"/><path d="M866,-7L989,87L1088,-2Z" fill="#a4d4bc" stroke="#a4d4bc" stroke-width="1.51"/><path d="M891,475L886,730L1089,574Z" fill="#6dc4bf" stroke="#6dc4bf" stroke-width="1.51"/><path d="M886,730L841,825L1075,839Z" fill="#58bdc1" stroke="#58bdc1" stroke-width="1.51"/><path d="M877,1354L840,1601L985,1611Z" fill="#3f91b8" stroke="#3f91b8" stroke-width="1.51"/><path d="M852,2015L848,2100L1024,2151Z" fill="#3a6d99" stroke="#3a6d99" stroke-width="1.51"/><path d="M877,1354L985,1611L1050,1423Z" fill="#3693bb" stroke="#3693bb" stroke-width="1.51"/><path d="M877,1180L984,1193L1037,1056Z" fill="#39aac3" stroke="#39aac3" stroke-width="1.51"/><path d="M852,996L877,1180L1037,1056Z" fill="#42b0c3" stroke="#42b0c3" stroke-width="1.51"/><path d="M877,1180L877,1354L984,1193Z" fill="#3ca7c2" stroke="#3ca7c2" stroke-width="1.51"/><path d="M840,1601L819,1754L985,1611Z" fill="#4387b4" stroke="#4387b4" stroke-width="1.51"/><path d="M866,-7L905,164L989,87Z" fill="#a4d7bb" stroke="#a4d7bb" stroke-width="1.51"/><path d="M642,1821L667,1979L819,1754Z" fill="#587fab" stroke="#587fab" stroke-width="1.51"/><path d="M819,1754L667,1979L852,2015Z" fill="#5179a9" stroke="#5179a9" stroke-width="1.51"/><path d="M808,-222L725,-65L866,-7Z" fill="#b3dec0" stroke="#b3dec0" stroke-width="1.51"/><path d="M852,996L682,1016L877,1180Z" fill="#51b5c2" stroke="#51b5c2" stroke-width="1.51"/><path d="M725,1596L840,1601L877,1354Z" fill="#4a94b8" stroke="#4a94b8" stroke-width="1.51"/><path d="M643,1425L725,1596L877,1354Z" fill="#519bb9" stroke="#519bb9" stroke-width="1.51"/><path d="M877,1180L745,1288L877,1354Z" fill="#46a8c0" stroke="#46a8c0" stroke-width="1.51"/><path d="M736,506L640,634L886,730Z" fill="#79cabd" stroke="#79cabd" stroke-width="1.51"/><path d="M736,506L886,730L891,475Z" fill="#7ac9bd" stroke="#7ac9bd" stroke-width="1.51"/><path d="M875,320L736,506L891,475Z" fill="#8ccfbc" stroke="#8ccfbc" stroke-width="1.51"/><path d="M866,-7L654,108L905,164Z" fill="#aadbba" stroke="#aadbba" stroke-width="1.51"/><path d="M675,324L875,320L905,164Z" fill="#9dd6ba" stroke="#9dd6ba" stroke-width="1.51"/><path d="M654,108L675,324L905,164Z" fill="#a7dab9" stroke="#a7dab9" stroke-width="1.51"/><path d="M841,825L729,842L852,996Z" fill="#5bbec1" stroke="#5bbec1" stroke-width="1.51"/><path d="M675,324L736,506L875,320Z" fill="#97d4ba" stroke="#97d4ba" stroke-width="1.51"/><path d="M745,1288L643,1425L877,1354Z" fill="#4fa4bc" stroke="#4fa4bc" stroke-width="1.51"/><path d="M729,842L841,825L886,730Z" fill="#63c1c0" stroke="#63c1c0" stroke-width="1.51"/><path d="M640,634L729,842L886,730Z" fill="#6fc5be" stroke="#6fc5be" stroke-width="1.51"/><path d="M725,-65L654,108L866,-7Z" fill="#b3deb8" stroke="#b3deb8" stroke-width="1.51"/><path d="M682,1016L745,1288L877,1180Z" fill="#52b1c1" stroke="#52b1c1" stroke-width="1.51"/><path d="M725,1596L819,1754L840,1601Z" fill="#4d8ab2" stroke="#4d8ab2" stroke-width="1.51"/><path d="M487,-252L623,-162L808,-222Z" fill="#c0e5c5" stroke="#c0e5c5" stroke-width="1.51"/><path d="M729,842L682,1016L852,996Z" fill="#5abec1" stroke="#5abec1" stroke-width="1.51"/><path d="M753,2132L848,2100L852,2015Z" fill="#457099" stroke="#457099" stroke-width="1.51"/><path d="M667,1979L753,2132L852,2015Z" fill="#4d749c" stroke="#4d749c" stroke-width="1.51"/><path d="M623,-162L725,-65L808,-222Z" fill="#b9e2c2" stroke="#b9e2c2" stroke-width="1.51"/><path d="M725,1596L642,1821L819,1754Z" fill="#5587af" stroke="#5587af" stroke-width="1.51"/><path d="M654,108L572,195L675,324Z" fill="#aedeb7" stroke="#aedeb7" stroke-width="1.51"/><path d="M561,1768L642,1821L725,1596Z" fill="#5d8aae" stroke="#5d8aae" stroke-width="1.51"/><path d="M640,634L531,672L729,842Z" fill="#7bcbbc" stroke="#7bcbbc" stroke-width="1.51"/><path d="M682,1016L499,1166L745,1288Z" fill="#5fb6bf" stroke="#5fb6bf" stroke-width="1.51"/><path d="M667,1979L552,2149L753,2132Z" fill="#527597" stroke="#527597" stroke-width="1.51"/><path d="M643,1425L552,1472L725,1596Z" fill="#5b9cb6" stroke="#5b9cb6" stroke-width="1.51"/><path d="M675,324L489,548L736,506Z" fill="#97d5b9" stroke="#97d5b9" stroke-width="1.51"/><path d="M499,1166L643,1425L745,1288Z" fill="#5dadbe" stroke="#5dadbe" stroke-width="1.51"/><path d="M456,835L682,1016L729,842Z" fill="#6ec4bf" stroke="#6ec4bf" stroke-width="1.51"/><path d="M489,548L640,634L736,506Z" fill="#8dd1ba" stroke="#8dd1ba" stroke-width="1.51"/><path d="M476,-18L654,108L725,-65Z" fill="#bde3b6" stroke="#bde3b6" stroke-width="1.51"/><path d="M531,672L456,835L729,842Z" fill="#7ecbbd" stroke="#7ecbbd" stroke-width="1.51"/><path d="M623,-162L476,-18L725,-65Z" fill="#c1e5bc" stroke="#c1e5bc" stroke-width="1.51"/><path d="M469,1539L561,1768L725,1596Z" fill="#6493b1" stroke="#6493b1" stroke-width="1.51"/><path d="M552,1472L469,1539L725,1596Z" fill="#649bb4" stroke="#649bb4" stroke-width="1.51"/><path d="M388,1278L552,1472L643,1425Z" fill="#6ca9b9" stroke="#6ca9b9" stroke-width="1.51"/><path d="M499,1166L388,1278L643,1425Z" fill="#6fb3bc" stroke="#6fb3bc" stroke-width="1.51"/><path d="M642,1821L554,1955L667,1979Z" fill="#607ea7" stroke="#607ea7" stroke-width="1.51"/><path d="M554,1955L552,2149L667,1979Z" fill="#5e7a9c" stroke="#5e7a9c" stroke-width="1.51"/><path d="M494,271L489,548L675,324Z" fill="#aadcb7" stroke="#aadcb7" stroke-width="1.51"/><path d="M462,1052L499,1166L682,1016Z" fill="#70bfbe" stroke="#70bfbe" stroke-width="1.51"/><path d="M456,835L462,1052L682,1016Z" fill="#75c6bf" stroke="#75c6bf" stroke-width="1.51"/><path d="M572,195L494,271L675,324Z" fill="#b0dfb7" stroke="#b0dfb7" stroke-width="1.51"/><path d="M476,-18L572,195L654,108Z" fill="#bde4b6" stroke="#bde4b6" stroke-width="1.51"/><path d="M489,548L531,672L640,634Z" fill="#8ed2ba" stroke="#8ed2ba" stroke-width="1.51"/><path d="M561,1768L554,1955L642,1821Z" fill="#6584aa" stroke="#6584aa" stroke-width="1.51"/><path d="M487,-252L476,-18L623,-162Z" fill="#caeabf" stroke="#caeabf" stroke-width="1.51"/><path d="M90,-227L298,-164L487,-252Z" fill="#e3f4c1" stroke="#e3f4c1" stroke-width="1.51"/><path d="M346,-94L476,-18L487,-252Z" fill="#d3eebd" stroke="#d3eebd" stroke-width="1.51"/><path d="M330,447L489,548L494,271Z" fill="#b2e0b7" stroke="#b2e0b7" stroke-width="1.51"/><path d="M330,332L330,447L494,271Z" fill="#c0e5b5" stroke="#c0e5b5" stroke-width="1.51"/><path d="M388,1278L325,1416L552,1472Z" fill="#7baeb8" stroke="#7baeb8" stroke-width="1.51"/><path d="M387,2134L552,2149L554,1955Z" fill="#667b96" stroke="#667b96" stroke-width="1.51"/><path d="M391,1827L554,1955L561,1768Z" fill="#7087a9" stroke="#7087a9" stroke-width="1.51"/><path d="M469,1539L391,1827L561,1768Z" fill="#7392ad" stroke="#7392ad" stroke-width="1.51"/><path d="M325,184L494,271L572,195Z" fill="#c0e5b5" stroke="#c0e5b5" stroke-width="1.51"/><path d="M476,-18L325,184L572,195Z" fill="#c7e8b5" stroke="#c7e8b5" stroke-width="1.51"/><path d="M377,1537L391,1827L469,1539Z" fill="#7a9aaf" stroke="#7a9aaf" stroke-width="1.51"/><path d="M325,1416L469,1539L552,1472Z" fill="#77a5b5" stroke="#77a5b5" stroke-width="1.51"/><path d="M319,1982L387,2134L554,1955Z" fill="#72819b" stroke="#72819b" stroke-width="1.51"/><path d="M391,1827L319,1982L554,1955Z" fill="#7886a6" stroke="#7886a6" stroke-width="1.51"/><path d="M489,548L309,633L531,672Z" fill="#9bd7b9" stroke="#9bd7b9" stroke-width="1.51"/><path d="M309,633L456,835L531,672Z" fill="#94d4ba" stroke="#94d4ba" stroke-width="1.51"/><path d="M290,852L319,1061L456,835Z" fill="#90d0bd" stroke="#90d0bd" stroke-width="1.51"/><path d="M456,835L319,1061L462,1052Z" fill="#85cabe" stroke="#85cabe" stroke-width="1.51"/><path d="M325,1416L377,1537L469,1539Z" fill="#7da6b4" stroke="#7da6b4" stroke-width="1.51"/><path d="M298,-164L346,-94L487,-252Z" fill="#dbf1bf" stroke="#dbf1bf" stroke-width="1.51"/><path d="M462,1052L319,1061L499,1166Z" fill="#80c2bd" stroke="#80c2bd" stroke-width="1.51"/><path d="M319,1061L388,1278L499,1166Z" fill="#81bfbc" stroke="#81bfbc" stroke-width="1.51"/><path d="M325,184L330,332L494,271Z" fill="#c6e8b4" stroke="#c6e8b4" stroke-width="1.51"/><path d="M309,633L290,852L456,835Z" fill="#9ad5ba" stroke="#9ad5ba" stroke-width="1.51"/><path d="M346,-94L325,184L476,-18Z" fill="#d4eeb3" stroke="#d4eeb3" stroke-width="1.51"/><path d="M330,447L309,633L489,548Z" fill="#abddb7" stroke="#abddb7" stroke-width="1.51"/><path d="M377,1537L186,1817L391,1827Z" fill="#8497ac" stroke="#8497ac" stroke-width="1.51"/><path d="M171,-27L325,184L346,-94Z" fill="#ddf1b3" stroke="#ddf1b3" stroke-width="1.51"/><path d="M102,1529L186,1817L377,1537Z" fill="#8ba0af" stroke="#8ba0af" stroke-width="1.51"/><path d="M319,1061L136,1226L388,1278Z" fill="#8dc2bc" stroke="#8dc2bc" stroke-width="1.51"/><path d="M186,1817L319,1982L391,1827Z" fill="#858ca8" stroke="#858ca8" stroke-width="1.51"/><path d="M319,1982L128,2161L387,2134Z" fill="#7b8294" stroke="#7b8294" stroke-width="1.51"/><path d="M136,1226L325,1416L388,1278Z" fill="#8ababa" stroke="#8ababa" stroke-width="1.51"/><path d="M325,1416L175,1440L377,1537Z" fill="#88acb5" stroke="#88acb5" stroke-width="1.51"/><path d="M175,1440L102,1529L377,1537Z" fill="#8caab3" stroke="#8caab3" stroke-width="1.51"/><path d="M122,673L290,852L309,633Z" fill="#a6dab8" stroke="#a6dab8" stroke-width="1.51"/><path d="M290,852L143,916L319,1061Z" fill="#97d2bc" stroke="#97d2bc" stroke-width="1.51"/><path d="M129,1099L136,1226L319,1061Z" fill="#95c8bc" stroke="#95c8bc" stroke-width="1.51"/><path d="M109,2004L128,2161L319,1982Z" fill="#848698" stroke="#848698" stroke-width="1.51"/><path d="M171,-27L120,133L325,184Z" fill="#ddf2b3" stroke="#ddf2b3" stroke-width="1.51"/><path d="M136,1226L175,1440L325,1416Z" fill="#8eb7b8" stroke="#8eb7b8" stroke-width="1.51"/><path d="M325,184L205,337L330,332Z" fill="#cdebb4" stroke="#cdebb4" stroke-width="1.51"/><path d="M92,468L309,633L330,447Z" fill="#b9e2b6" stroke="#b9e2b6" stroke-width="1.51"/><path d="M330,332L205,337L330,447Z" fill="#c5e8b5" stroke="#c5e8b5" stroke-width="1.51"/><path d="M298,-164L171,-27L346,-94Z" fill="#e1f3b9" stroke="#e1f3b9" stroke-width="1.51"/><path d="M92,468L122,673L309,633Z" fill="#b5e1b7" stroke="#b5e1b7" stroke-width="1.51"/><path d="M205,337L92,468L330,447Z" fill="#c6e8b5" stroke="#c6e8b5" stroke-width="1.51"/><path d="M143,916L129,1099L319,1061Z" fill="#97cebc" stroke="#97cebc" stroke-width="1.51"/><path d="M186,1817L109,2004L319,1982Z" fill="#898ba3" stroke="#898ba3" stroke-width="1.51"/><path d="M120,133L205,337L325,184Z" fill="#d5eeb3" stroke="#d5eeb3" stroke-width="1.51"/><path d="M122,673L143,916L290,852Z" fill="#a4d8ba" stroke="#a4d8ba" stroke-width="1.51"/><path d="M90,-227L171,-27L298,-164Z" fill="#e8f6bc" stroke="#e8f6bc" stroke-width="1.51"/><path d="M-214,-260L-48,-192L90,-227Z" fill="#f6fcc5" stroke="#f6fcc5" stroke-width="1.51"/><path d="M-20,2114L-180,2195L128,2161Z" fill="#88848f" stroke="#88848f" stroke-width="1.51"/><path d="M122,673L36,886L143,916Z" fill="#a9daba" stroke="#a9daba" stroke-width="1.51"/><path d="M136,1226L-33,1273L175,1440Z" fill="#97beb9" stroke="#97beb9" stroke-width="1.51"/><path d="M102,1529L-48,1586L186,1817Z" fill="#94a2ae" stroke="#94a2ae" stroke-width="1.51"/><path d="M-48,1586L-64,1818L186,1817Z" fill="#979cab" stroke="#979cab" stroke-width="1.51"/><path d="M120,133L-6,328L205,337Z" fill="#d9f0b3" stroke="#d9f0b3" stroke-width="1.51"/><path d="M-6,328L92,468L205,337Z" fill="#d0ecb4" stroke="#d0ecb4" stroke-width="1.51"/><path d="M-6,328L36,450L92,468Z" fill="#d0ecb4" stroke="#d0ecb4" stroke-width="1.51"/><path d="M90,-227L-48,-192L171,-27Z" fill="#eff9bc" stroke="#eff9bc" stroke-width="1.51"/><path d="M-7,108L120,133L171,-27Z" fill="#e5f4b2" stroke="#e5f4b2" stroke-width="1.51"/><path d="M-33,1273L-36,1453L175,1440Z" fill="#9ab8b6" stroke="#9ab8b6" stroke-width="1.51"/><path d="M-64,1818L109,2004L186,1817Z" fill="#9490a7" stroke="#9490a7" stroke-width="1.51"/><path d="M-64,1818L-79,1931L109,2004Z" fill="#9790a6" stroke="#9790a6" stroke-width="1.51"/><path d="M36,886L-63,1020L129,1099Z" fill="#a3d3bc" stroke="#a3d3bc" stroke-width="1.51"/><path d="M36,886L129,1099L143,916Z" fill="#a0d4bc" stroke="#a0d4bc" stroke-width="1.51"/><path d="M-48,-192L-96,-48L171,-27Z" fill="#f0f9b8" stroke="#f0f9b8" stroke-width="1.51"/><path d="M-36,1453L102,1529L175,1440Z" fill="#96b0b4" stroke="#96b0b4" stroke-width="1.51"/><path d="M-96,-48L-7,108L171,-27Z" fill="#edf8b2" stroke="#edf8b2" stroke-width="1.51"/><path d="M36,450L-51,692L92,468Z" fill="#c5e7b5" stroke="#c5e7b5" stroke-width="1.51"/><path d="M-7,108L-6,328L120,133Z" fill="#e2f4b2" stroke="#e2f4b2" stroke-width="1.51"/><path d="M92,468L-51,692L122,673Z" fill="#bbe3b6" stroke="#bbe3b6" stroke-width="1.51"/><path d="M-51,692L36,886L122,673Z" fill="#b2deb8" stroke="#b2deb8" stroke-width="1.51"/><path d="M109,2004L-20,2114L128,2161Z" fill="#888693" stroke="#888693" stroke-width="1.51"/><path d="M129,1099L-33,1273L136,1226Z" fill="#9bc6bb" stroke="#9bc6bb" stroke-width="1.51"/><path d="M-63,1020L-33,1273L129,1099Z" fill="#a1ccbb" stroke="#a1ccbb" stroke-width="1.51"/><path d="M-79,1931L-20,2114L109,2004Z" fill="#908b9b" stroke="#908b9b" stroke-width="1.51"/><path d="M-36,1453L-48,1586L102,1529Z" fill="#9aadb2" stroke="#9aadb2" stroke-width="1.51"/><path d="M-157,1771L-64,1818L-48,1586Z" fill="#9a9eb1" stroke="#9a9eb1" stroke-width="1.51"/><path d="M-63,1020L-211,1198L-33,1273Z" fill="#a3cbc2" stroke="#a3cbc2" stroke-width="1.51"/><path d="M-7,108L-158,185L-6,328Z" fill="#e4f5b6" stroke="#e4f5b6" stroke-width="1.51"/><path d="M-51,692L-273,829L36,886Z" fill="#b3ddc0" stroke="#b3ddc0" stroke-width="1.51"/><path d="M-273,829L-63,1020L36,886Z" fill="#acdac2" stroke="#acdac2" stroke-width="1.51"/><path d="M-261,534L-51,692L36,450Z" fill="#c6e8bc" stroke="#c6e8bc" stroke-width="1.51"/><path d="M-6,328L-224,355L36,450Z" fill="#d8f0b8" stroke="#d8f0b8" stroke-width="1.51"/><path d="M-224,355L-261,534L36,450Z" fill="#d3eebe" stroke="#d3eebe" stroke-width="1.51"/><path d="M-240,703L-273,829L-51,692Z" fill="#b9e1c5" stroke="#b9e1c5" stroke-width="1.51"/><path d="M-214,1423L-36,1453L-33,1273Z" fill="#9ebabd" stroke="#9ebabd" stroke-width="1.51"/><path d="M-79,1931L-143,1949L-20,2114Z" fill="#938ca2" stroke="#938ca2" stroke-width="1.51"/><path d="M-96,-48L-171,10L-7,108Z" fill="#f0f9b8" stroke="#f0f9b8" stroke-width="1.51"/><path d="M-171,10L-158,185L-7,108Z" fill="#ecf8b9" stroke="#ecf8b9" stroke-width="1.51"/><path d="M-158,185L-224,355L-6,328Z" fill="#e1f3bb" stroke="#e1f3bb" stroke-width="1.51"/><path d="M-261,534L-240,703L-51,692Z" fill="#c0e5c3" stroke="#c0e5c3" stroke-width="1.51"/><path d="M-218,1595L-157,1771L-48,1586Z" fill="#9ba4b7" stroke="#9ba4b7" stroke-width="1.51"/><path d="M-143,1949L-180,2195L-20,2114Z" fill="#8e899b" stroke="#8e899b" stroke-width="1.51"/><path d="M-218,1595L-48,1586L-36,1453Z" fill="#9bacb8" stroke="#9bacb8" stroke-width="1.51"/><path d="M-214,1423L-218,1595L-36,1453Z" fill="#9db2bd" stroke="#9db2bd" stroke-width="1.51"/><path d="M-211,1198L-214,1423L-33,1273Z" fill="#a0c3c3" stroke="#a0c3c3" stroke-width="1.51"/><path d="M-269,1071L-211,1198L-63,1020Z" fill="#a6d0c7" stroke="#a6d0c7" stroke-width="1.51"/><path d="M-273,829L-269,1071L-63,1020Z" fill="#abd8c9" stroke="#abd8c9" stroke-width="1.51"/><path d="M-214,-260L-96,-48L-48,-192Z" fill="#f7fcc5" stroke="#f7fcc5" stroke-width="1.51"/><path d="M-143,1949L-79,1931L-64,1818Z" fill="#9991ac" stroke="#9991ac" stroke-width="1.51"/><path d="M-157,1771L-143,1949L-64,1818Z" fill="#9a95b0" stroke="#9a95b0" stroke-width="1.51"/><path d="M-214,-260L-171,10L-96,-48Z" fill="#f6fcc4" stroke="#f6fcc4" stroke-width="1.51"/><path d="M-157,1771L-218,1595L-143,1949Z" fill="#9b9bb5" stroke="#9b9bb5" stroke-width="1.51"/><path d="M-218,1595L-180,2195L-143,1949Z" fill="#9a91b0" stroke="#9a91b0" stroke-width="1.51"/><path d="M-171,10L-224,355L-158,185Z" fill="#e9f6be" stroke="#e9f6be" stroke-width="1.51"/><path d="M-218,1595L-269,1071L-180,2195Z" fill="#9da7bc" stroke="#9da7bc" stroke-width="1.51"/><path d="M-214,-260L-224,355L-171,10Z" fill="#f3fabf" stroke="#f3fabf" stroke-width="1.51"/><path d="M-261,534L-224,355L-214,-260Z" fill="#e9f7c1" stroke="#e9f7c1" stroke-width="1.51"/><path d="M-269,1071L-214,1423L-211,1198Z" fill="#a3c8ca" stroke="#a3c8ca" stroke-width="1.51"/><path d="M-269,1071L-218,1595L-214,1423Z" fill="#a1bec6" stroke="#a1bec6" stroke-width="1.51"/><path d="M-261,534L-273,829L-240,703Z" fill="#bee4c8" stroke="#bee4c8" stroke-width="1.51"/></svg>